<svg width="50" height="50" viewBox="0 0 50 50" fill="none" xmlns="http://www.w3.org/2000/svg">
<g id="Branding">
<g id="6">
<path id="Vector" d="M39.0625 37.5H10.9375C10.5231 37.5 10.1257 37.3354 9.83265 37.0424C9.53962 36.7493 9.375 36.3519 9.375 35.9375C9.375 35.5231 9.53962 35.1257 9.83265 34.8326C10.1257 34.5396 10.5231 34.375 10.9375 34.375H39.0625C39.4769 34.375 39.8743 34.5396 40.1674 34.8326C40.4604 35.1257 40.625 35.5231 40.625 35.9375C40.625 36.3519 40.4604 36.7493 40.1674 37.0424C39.8743 37.3354 39.4769 37.5 39.0625 37.5Z" fill="#FF7A2F"/>
<path id="Vector_2" d="M20.1875 10.9375C19.5696 10.9387 18.9653 10.7569 18.4508 10.4148C17.9363 10.0727 17.5347 9.5858 17.2968 9.01559L15.7343 5.26559C15.6371 5.07401 15.5804 4.86444 15.5678 4.64997C15.5552 4.4355 15.587 4.22073 15.6611 4.01909C15.7353 3.81745 15.8502 3.63326 15.9988 3.47804C16.1473 3.32283 16.3263 3.19991 16.5244 3.11697C16.7226 3.03403 16.9358 2.99286 17.1506 2.99602C17.3654 2.99918 17.5773 3.04661 17.773 3.13534C17.9686 3.22407 18.1439 3.3522 18.2878 3.51172C18.4317 3.67124 18.5412 3.85873 18.6093 4.06246L20.1718 7.81246H29.7968L31.3593 4.07809C31.4275 3.87435 31.537 3.68687 31.6809 3.52734C31.8248 3.36782 32.0001 3.23969 32.1957 3.15096C32.3914 3.06223 32.6033 3.0148 32.8181 3.01164C33.0329 3.00848 33.2461 3.04966 33.4443 3.1326C33.6424 3.21553 33.8214 3.33845 33.9699 3.49367C34.1185 3.64889 34.2334 3.83307 34.3076 4.03471C34.3817 4.23635 34.4135 4.45112 34.4009 4.66559C34.3883 4.88007 34.3316 5.08964 34.2343 5.28121L32.6718 9.01559C32.4371 9.57848 32.0428 10.0604 31.5374 10.4019C31.0321 10.7434 30.4379 10.9296 29.8281 10.9375H20.1875Z" fill="#FF7A2F"/>
<path id="Vector_3" d="M26.5625 20.9219V14.0625C26.5625 13.6481 26.3979 13.2507 26.1049 12.9576C25.8119 12.6646 25.4144 12.5 25 12.5C24.5856 12.5 24.1882 12.6646 23.8952 12.9576C23.6021 13.2507 23.4375 13.6481 23.4375 14.0625V20.9375C23.0231 20.9769 22.6413 21.1792 22.3761 21.5001C22.111 21.821 21.9841 22.234 22.0235 22.6484C22.0628 23.0628 22.2652 23.4446 22.5861 23.7098C22.9069 23.975 23.32 24.1019 23.7344 24.0625H26.2656C26.68 24.1019 27.0931 23.975 27.414 23.7098C27.7348 23.4446 27.9372 23.0628 27.9766 22.6484C28.016 22.234 27.8891 21.821 27.6239 21.5001C27.3587 21.1792 26.9769 20.9769 26.5625 20.9375V20.9219Z" fill="#FF7A2F"/>
<path id="Vector_4" d="M37.5 46.875H12.5C11.6712 46.875 10.8763 46.5458 10.2903 45.9597C9.70424 45.3737 9.375 44.5788 9.375 43.75V6.25C9.375 5.4212 9.70424 4.62634 10.2903 4.04029C10.8763 3.45424 11.6712 3.125 12.5 3.125H37.5C38.3288 3.125 39.1237 3.45424 39.7097 4.04029C40.2958 4.62634 40.625 5.4212 40.625 6.25V43.75C40.625 44.5788 40.2958 45.3737 39.7097 45.9597C39.1237 46.5458 38.3288 46.875 37.5 46.875ZM12.5 6.25V43.75H37.5V6.25H12.5Z" fill="#5C3890"/>
<path id="Vector_5" d="M32.4219 22.453L28 13.5937C27.7689 13.1239 27.4107 12.7284 26.966 12.4522C26.5212 12.1759 26.0079 12.0301 25.4844 12.0312H24.5156C23.9917 12.0282 23.4776 12.1733 23.0326 12.4498C22.5875 12.7262 22.2296 13.1227 22 13.5937L17.5781 22.4374C17.3931 22.817 17.2969 23.2338 17.2969 23.6562C17.2969 24.0785 17.3931 24.4953 17.5781 24.8749L19.2969 28.6249C19.5507 29.1696 19.9724 29.6186 20.5 29.9062C20.2632 30.0392 20.0652 30.2316 19.9254 30.4645C19.7857 30.6974 19.7091 30.9628 19.7031 31.2343C19.7031 31.6487 19.8677 32.0461 20.1608 32.3392C20.4538 32.6322 20.8512 32.7968 21.2656 32.7968H28.8281C29.2425 32.7968 29.64 32.6322 29.933 32.3392C30.226 32.0461 30.3906 31.6487 30.3906 31.2343C30.3847 30.9628 30.3081 30.6974 30.1683 30.4645C30.0286 30.2316 29.8306 30.0392 29.5938 29.9062C30.1214 29.6186 30.543 29.1696 30.7969 28.6249L32.5156 24.8749C32.6838 24.4903 32.7627 24.0727 32.7464 23.6532C32.7302 23.2338 32.6192 22.8235 32.4219 22.453ZM27.9844 27.1405H22.0156L20.4531 23.6874L24.7188 15.1405H25.3125L29.5781 23.6874L27.9844 27.1405Z" fill="#5C3890"/>
<path id="Vector_6" d="M26.5625 42.1875H23.4375C23.0231 42.1875 22.6257 42.0229 22.3326 41.7299C22.0396 41.4368 21.875 41.0394 21.875 40.625C21.875 40.2106 22.0396 39.8132 22.3326 39.5201C22.6257 39.2271 23.0231 39.0625 23.4375 39.0625H26.5625C26.9769 39.0625 27.3743 39.2271 27.6674 39.5201C27.9604 39.8132 28.125 40.2106 28.125 40.625C28.125 41.0394 27.9604 41.4368 27.6674 41.7299C27.3743 42.0229 26.9769 42.1875 26.5625 42.1875Z" fill="#FF7A2F"/>
</g>
</g>
</svg>
