<svg width="50" height="50" viewBox="0 0 50 50" fill="none" xmlns="http://www.w3.org/2000/svg">
<g id="Graphic">
<g id="2">
<path id="Vector" d="M39.0625 4.76562C38.1605 4.77217 37.2714 4.98044 36.4603 5.37516C35.6492 5.76989 34.9367 6.34108 34.375 7.04688L27.4688 15.8906C27.3556 16.0461 27.2513 16.2078 27.1563 16.375H25C24.3826 16.3745 23.7788 16.557 23.2649 16.8993C22.751 17.2417 22.3501 17.7286 22.1127 18.2987C21.8753 18.8687 21.8121 19.4963 21.9311 20.1022C22.0501 20.7081 22.346 21.2652 22.7813 21.7031L28.5 27.4219C29.0834 28.0087 29.8757 28.3403 30.7032 28.3438C31.1173 28.3452 31.5271 28.2601 31.9063 28.0938C32.477 27.8593 32.9655 27.4612 33.3103 26.9496C33.6551 26.4379 33.8407 25.8357 33.8438 25.2188V23C34.0303 22.8947 34.2079 22.7746 34.375 22.6406L42.8125 15.5312C43.788 14.7496 44.4972 13.685 44.8427 12.4837C45.1881 11.2825 45.1529 10.0037 44.7417 8.82333C44.3306 7.64295 43.5637 6.61899 42.5467 5.89234C41.5297 5.1657 40.3125 4.77207 39.0625 4.76562ZM30.6563 25.2188L25 19.5H27.2188L27.7344 20.0156L28.9532 21.2344L30.7188 23L30.6563 25.2188ZM40.8438 13.1094L32.3125 20.3125L31.0938 19.1094L29.875 17.8906L36.7657 9.0625C37.0342 8.70534 37.3806 8.41414 37.7786 8.21107C38.1767 8.00799 38.6158 7.8984 39.0625 7.89063C39.6693 7.89252 40.2604 8.08328 40.7539 8.43641C41.2473 8.78954 41.6186 9.28753 41.8161 9.86126C42.0136 10.435 42.0277 11.056 41.8562 11.638C41.6848 12.2201 41.3364 12.7343 40.8594 13.1094H40.8438Z" fill="#5C3890"/>
<path id="Vector_2" d="M21.0313 45.3125C20.6028 45.3111 20.1791 45.2216 19.7867 45.0496C19.3943 44.8775 19.0414 44.6266 18.75 44.3125L10.9375 36.5C10.5385 36.0975 10.2565 35.594 10.1216 35.0436C9.98677 34.4931 10.0041 33.9163 10.1719 33.375C9.63054 33.5427 9.05376 33.5601 8.50329 33.4252C7.95282 33.2904 7.44939 33.0083 7.0469 32.6093L5.82814 31.3906C5.51709 31.0785 5.27554 30.7042 5.11936 30.2922C4.96317 29.8802 4.89588 29.4398 4.9219 29C4.94691 28.5611 5.06422 28.1325 5.26615 27.7421C5.46808 27.3517 5.75009 27.0083 6.09377 26.7343L18.4375 16.9687C19.04 16.4924 19.7967 16.2546 20.5633 16.3007C21.33 16.3468 22.0528 16.6736 22.5938 17.2187L33 27.625C33.5386 28.1671 33.8599 28.8878 33.9031 29.6508C33.9463 30.4138 33.7084 31.1661 33.2344 31.7656L23.4375 44.0468C23.1618 44.3924 22.8159 44.6756 22.4226 44.8776C22.0294 45.0796 21.5978 45.1959 21.1563 45.2187L21.0313 45.3125ZM14.5313 27.4218C14.8071 27.4219 15.0779 27.4949 15.3163 27.6335C15.5548 27.7722 15.7522 27.9714 15.8887 28.2111C16.0252 28.4507 16.0958 28.7222 16.0934 28.998C16.091 29.2738 16.0157 29.544 15.875 29.7812L13.1875 34.2656L21 42.0781L30.75 29.7343L20.3125 19.3593L8.04689 29.125L9.25002 30.3281L13.7344 27.6406C13.9756 27.4975 14.2508 27.4219 14.5313 27.4218Z" fill="#FF7A2F"/>
</g>
</g>
</svg>
