<svg width="50" height="50" viewBox="0 0 50 50" fill="none" xmlns="http://www.w3.org/2000/svg">
<g id="low code webdev">
<g id="1">
<path id="Vector" d="M35.9375 17.1875C35.5231 17.1875 35.1257 17.0229 34.8326 16.7299C34.5396 16.4369 34.375 16.0394 34.375 15.625V13.2813C34.375 12.6597 34.1281 12.0635 33.6885 11.624C33.249 11.1845 32.6529 10.9375 32.0312 10.9375C31.4096 10.9375 30.8135 11.1845 30.374 11.624C29.9344 12.0635 29.6875 12.6597 29.6875 13.2813C29.6875 13.9029 29.4406 14.499 29.001 14.9386C28.5615 15.3781 27.9654 15.625 27.3438 15.625H10.9375C10.5231 15.625 10.1257 15.4604 9.83265 15.1674C9.53962 14.8744 9.375 14.4769 9.375 14.0625C9.375 13.6481 9.53962 13.2507 9.83265 12.9577C10.1257 12.6646 10.5231 12.5 10.9375 12.5H26.5625C26.6661 11.0496 27.3416 9.69978 28.4405 8.74745C29.5393 7.79512 30.9715 7.3183 32.4219 7.4219C33.8723 7.5255 35.2221 8.20103 36.1745 9.29988C37.1268 10.3987 37.6036 11.8309 37.5 13.2813V15.625C37.5 16.0394 37.3354 16.4369 37.0424 16.7299C36.7493 17.0229 36.3519 17.1875 35.9375 17.1875Z" fill="#FF7A2F"/>
<path id="Vector_2" d="M42.1875 18.75H40.625C40.625 17.5068 40.1311 16.3145 39.2521 15.4354C38.373 14.5564 37.1807 14.0625 35.9375 14.0625C34.6943 14.0625 33.502 14.5564 32.6229 15.4354C31.7439 16.3145 31.25 17.5068 31.25 18.75H6.25C5.4212 18.75 4.62634 19.0792 4.04029 19.6653C3.45424 20.2513 3.125 21.0462 3.125 21.875V40.625C3.125 41.4538 3.45424 42.2487 4.04029 42.8347C4.62634 43.4208 5.4212 43.75 6.25 43.75H42.1875C43.0163 43.75 43.8112 43.4208 44.3972 42.8347C44.9833 42.2487 45.3125 41.4538 45.3125 40.625V21.875C45.3125 21.0462 44.9833 20.2513 44.3972 19.6653C43.8112 19.0792 43.0163 18.75 42.1875 18.75ZM35.9375 17.1875C36.3519 17.1875 36.7493 17.3521 37.0424 17.6451C37.3354 17.9382 37.5 18.3356 37.5 18.75H34.375C34.375 18.3356 34.5396 17.9382 34.8326 17.6451C35.1257 17.3521 35.5231 17.1875 35.9375 17.1875ZM6.25 40.625V21.875H42.1875V40.625H6.25Z" fill="#5C3890"/>
<path id="Vector_3" d="M12.5 28.125H10.9375C10.5231 28.125 10.1257 27.9604 9.83265 27.6674C9.53962 27.3743 9.375 26.9769 9.375 26.5625C9.375 26.1481 9.53962 25.7507 9.83265 25.4576C10.1257 25.1646 10.5231 25 10.9375 25H12.5C12.9144 25 13.3118 25.1646 13.6049 25.4576C13.8979 25.7507 14.0625 26.1481 14.0625 26.5625C14.0625 26.9769 13.8979 27.3743 13.6049 27.6674C13.3118 27.9604 12.9144 28.125 12.5 28.125Z" fill="#FF7A2F"/>
<path id="Vector_4" d="M18.75 28.125H17.1875C16.7731 28.125 16.3757 27.9604 16.0826 27.6674C15.7896 27.3743 15.625 26.9769 15.625 26.5625C15.625 26.1481 15.7896 25.7507 16.0826 25.4576C16.3757 25.1646 16.7731 25 17.1875 25H18.75C19.1644 25 19.5618 25.1646 19.8549 25.4576C20.1479 25.7507 20.3125 26.1481 20.3125 26.5625C20.3125 26.9769 20.1479 27.3743 19.8549 27.6674C19.5618 27.9604 19.1644 28.125 18.75 28.125Z" fill="#FF7A2F"/>
<path id="Vector_5" d="M25 28.125H23.4375C23.0231 28.125 22.6257 27.9604 22.3326 27.6674C22.0396 27.3743 21.875 26.9769 21.875 26.5625C21.875 26.1481 22.0396 25.7507 22.3326 25.4576C22.6257 25.1646 23.0231 25 23.4375 25H25C25.4144 25 25.8118 25.1646 26.1049 25.4576C26.3979 25.7507 26.5625 26.1481 26.5625 26.5625C26.5625 26.9769 26.3979 27.3743 26.1049 27.6674C25.8118 27.9604 25.4144 28.125 25 28.125Z" fill="#FF7A2F"/>
<path id="Vector_6" d="M31.25 28.125H29.6875C29.2731 28.125 28.8757 27.9604 28.5826 27.6674C28.2896 27.3743 28.125 26.9769 28.125 26.5625C28.125 26.1481 28.2896 25.7507 28.5826 25.4576C28.8757 25.1646 29.2731 25 29.6875 25H31.25C31.6644 25 32.0618 25.1646 32.3549 25.4576C32.6479 25.7507 32.8125 26.1481 32.8125 26.5625C32.8125 26.9769 32.6479 27.3743 32.3549 27.6674C32.0618 27.9604 31.6644 28.125 31.25 28.125Z" fill="#FF7A2F"/>
<path id="Vector_7" d="M37.5 28.125H35.9375C35.5231 28.125 35.1257 27.9604 34.8326 27.6674C34.5396 27.3743 34.375 26.9769 34.375 26.5625C34.375 26.1481 34.5396 25.7507 34.8326 25.4576C35.1257 25.1646 35.5231 25 35.9375 25H37.5C37.9144 25 38.3118 25.1646 38.6049 25.4576C38.8979 25.7507 39.0625 26.1481 39.0625 26.5625C39.0625 26.9769 38.8979 27.3743 38.6049 27.6674C38.3118 27.9604 37.9144 28.125 37.5 28.125Z" fill="#FF7A2F"/>
<path id="Vector_8" d="M12.5 32.8125H10.9375C10.5231 32.8125 10.1257 32.6479 9.83265 32.3549C9.53962 32.0618 9.375 31.6644 9.375 31.25C9.375 30.8356 9.53962 30.4382 9.83265 30.1451C10.1257 29.8521 10.5231 29.6875 10.9375 29.6875H12.5C12.9144 29.6875 13.3118 29.8521 13.6049 30.1451C13.8979 30.4382 14.0625 30.8356 14.0625 31.25C14.0625 31.6644 13.8979 32.0618 13.6049 32.3549C13.3118 32.6479 12.9144 32.8125 12.5 32.8125Z" fill="#FF7A2F"/>
<path id="Vector_9" d="M18.75 32.8125H17.1875C16.7731 32.8125 16.3757 32.6479 16.0826 32.3549C15.7896 32.0618 15.625 31.6644 15.625 31.25C15.625 30.8356 15.7896 30.4382 16.0826 30.1451C16.3757 29.8521 16.7731 29.6875 17.1875 29.6875H18.75C19.1644 29.6875 19.5618 29.8521 19.8549 30.1451C20.1479 30.4382 20.3125 30.8356 20.3125 31.25C20.3125 31.6644 20.1479 32.0618 19.8549 32.3549C19.5618 32.6479 19.1644 32.8125 18.75 32.8125Z" fill="#FF7A2F"/>
<path id="Vector_10" d="M25 32.8125H23.4375C23.0231 32.8125 22.6257 32.6479 22.3326 32.3549C22.0396 32.0618 21.875 31.6644 21.875 31.25C21.875 30.8356 22.0396 30.4382 22.3326 30.1451C22.6257 29.8521 23.0231 29.6875 23.4375 29.6875H25C25.4144 29.6875 25.8118 29.8521 26.1049 30.1451C26.3979 30.4382 26.5625 30.8356 26.5625 31.25C26.5625 31.6644 26.3979 32.0618 26.1049 32.3549C25.8118 32.6479 25.4144 32.8125 25 32.8125Z" fill="#FF7A2F"/>
<path id="Vector_11" d="M31.25 32.8125H29.6875C29.2731 32.8125 28.8757 32.6479 28.5826 32.3549C28.2896 32.0618 28.125 31.6644 28.125 31.25C28.125 30.8356 28.2896 30.4382 28.5826 30.1451C28.8757 29.8521 29.2731 29.6875 29.6875 29.6875H31.25C31.6644 29.6875 32.0618 29.8521 32.3549 30.1451C32.6479 30.4382 32.8125 30.8356 32.8125 31.25C32.8125 31.6644 32.6479 32.0618 32.3549 32.3549C32.0618 32.6479 31.6644 32.8125 31.25 32.8125Z" fill="#FF7A2F"/>
<path id="Vector_12" d="M37.5 32.8125H35.9375C35.5231 32.8125 35.1257 32.6479 34.8326 32.3549C34.5396 32.0618 34.375 31.6644 34.375 31.25C34.375 30.8356 34.5396 30.4382 34.8326 30.1451C35.1257 29.8521 35.5231 29.6875 35.9375 29.6875H37.5C37.9144 29.6875 38.3118 29.8521 38.6049 30.1451C38.8979 30.4382 39.0625 30.8356 39.0625 31.25C39.0625 31.6644 38.8979 32.0618 38.6049 32.3549C38.3118 32.6479 37.9144 32.8125 37.5 32.8125Z" fill="#FF7A2F"/>
<path id="Vector_13" d="M31.25 37.5H29.6875C29.2731 37.5 28.8757 37.3354 28.5826 37.0424C28.2896 36.7493 28.125 36.3519 28.125 35.9375C28.125 35.5231 28.2896 35.1257 28.5826 34.8326C28.8757 34.5396 29.2731 34.375 29.6875 34.375H31.25C31.6644 34.375 32.0618 34.5396 32.3549 34.8326C32.6479 35.1257 32.8125 35.5231 32.8125 35.9375C32.8125 36.3519 32.6479 36.7493 32.3549 37.0424C32.0618 37.3354 31.6644 37.5 31.25 37.5Z" fill="#FF7A2F"/>
<path id="Vector_14" d="M37.5 37.5H35.9375C35.5231 37.5 35.1257 37.3354 34.8326 37.0424C34.5396 36.7493 34.375 36.3519 34.375 35.9375C34.375 35.5231 34.5396 35.1257 34.8326 34.8326C35.1257 34.5396 35.5231 34.375 35.9375 34.375H37.5C37.9144 34.375 38.3118 34.5396 38.6049 34.8326C38.8979 35.1257 39.0625 35.5231 39.0625 35.9375C39.0625 36.3519 38.8979 36.7493 38.6049 37.0424C38.3118 37.3354 37.9144 37.5 37.5 37.5Z" fill="#FF7A2F"/>
<path id="Vector_15" d="M25 37.5H10.9375C10.5231 37.5 10.1257 37.3354 9.83265 37.0424C9.53962 36.7493 9.375 36.3519 9.375 35.9375C9.375 35.5231 9.53962 35.1257 9.83265 34.8326C10.1257 34.5396 10.5231 34.375 10.9375 34.375H25C25.4144 34.375 25.8118 34.5396 26.1049 34.8326C26.3979 35.1257 26.5625 35.5231 26.5625 35.9375C26.5625 36.3519 26.3979 36.7493 26.1049 37.0424C25.8118 37.3354 25.4144 37.5 25 37.5Z" fill="#FF7A2F"/>
</g>
</g>
</svg>
