<svg width="50" height="50" viewBox="0 0 50 50" fill="none" xmlns="http://www.w3.org/2000/svg">
<g id="UI/UX design">
<g id="1">
<path id="Vector" d="M26.5625 25.2656C26.5701 25.1772 26.5701 25.0884 26.5625 25V15.625C26.5625 15.2106 26.3979 14.8132 26.1049 14.5201C25.8118 14.2271 25.4144 14.0625 25 14.0625C24.5856 14.0625 24.1882 14.2271 23.8952 14.5201C23.6021 14.8132 23.4375 15.2106 23.4375 15.625V25C23.43 25.0884 23.43 25.1772 23.4375 25.2656C22.3871 25.6245 21.4982 26.3446 20.9289 27.2975C20.3597 28.2505 20.1471 29.3745 20.329 30.4695C20.5109 31.5646 21.0755 32.5595 21.9223 33.2772C22.7691 33.9949 23.8431 34.3888 24.9531 34.3888C26.0632 34.3888 27.1372 33.9949 27.984 33.2772C28.8307 32.5595 29.3953 31.5646 29.5773 30.4695C29.7592 29.3745 29.5466 28.2505 28.9774 27.2975C28.4081 26.3446 27.5192 25.6245 26.4688 25.2656H26.5625ZM25 31.25C24.691 31.25 24.3889 31.1584 24.1319 30.9867C23.875 30.815 23.6747 30.571 23.5564 30.2854C23.4382 29.9999 23.4072 29.6858 23.4675 29.3827C23.5278 29.0796 23.6766 28.8012 23.8952 28.5826C24.1137 28.3641 24.3921 28.2153 24.6952 28.155C24.9983 28.0947 25.3124 28.1257 25.598 28.2439C25.8835 28.3622 26.1275 28.5625 26.2992 28.8194C26.4709 29.0764 26.5625 29.3785 26.5625 29.6875C26.5625 30.1019 26.3979 30.4993 26.1049 30.7924C25.8118 31.0854 25.4144 31.25 25 31.25Z" fill="#FF7A2F"/>
<path id="Vector_2" d="M21.875 9.375H10.9375C10.5231 9.375 10.1257 9.21038 9.83265 8.91735C9.53962 8.62433 9.375 8.2269 9.375 7.8125C9.375 7.3981 9.53962 7.00067 9.83265 6.70765C10.1257 6.41462 10.5231 6.25 10.9375 6.25H21.875C22.2894 6.25 22.6868 6.41462 22.9799 6.70765C23.2729 7.00067 23.4375 7.3981 23.4375 7.8125C23.4375 8.2269 23.2729 8.62433 22.9799 8.91735C22.6868 9.21038 22.2894 9.375 21.875 9.375Z" fill="#5C3890"/>
<path id="Vector_3" d="M39.0625 9.375H28.125C27.7106 9.375 27.3132 9.21038 27.0201 8.91735C26.7271 8.62433 26.5625 8.2269 26.5625 7.8125C26.5625 7.3981 26.7271 7.00067 27.0201 6.70765C27.3132 6.41462 27.7106 6.25 28.125 6.25H39.0625C39.4769 6.25 39.8743 6.41462 40.1674 6.70765C40.4604 7.00067 40.625 7.3981 40.625 7.8125C40.625 8.2269 40.4604 8.62433 40.1674 8.91735C39.8743 9.21038 39.4769 9.375 39.0625 9.375Z" fill="#5C3890"/>
<path id="Vector_4" d="M31.9218 42.1875H18.0781C17.5327 42.1842 16.9977 42.0383 16.5263 41.7641C16.0548 41.49 15.6633 41.0973 15.3906 40.625L11.625 34.375C11.3507 33.8999 11.2063 33.3611 11.2063 32.8125C11.2063 32.264 11.3507 31.7251 11.625 31.25L20.125 15.625C20.4016 15.1458 20.8005 14.7486 21.2809 14.4741C21.7614 14.1996 22.306 14.0576 22.8593 14.0625H27.2656C27.8189 14.0576 28.3636 14.1996 28.844 14.4741C29.3244 14.7486 29.7233 15.1458 30 15.625L38.4375 31.25C38.7117 31.7251 38.8561 32.264 38.8561 32.8125C38.8561 33.3611 38.7117 33.8999 38.4375 34.375L34.6718 40.625C34.3939 41.1065 33.9925 41.5052 33.5091 41.7799C33.0257 42.0545 32.4778 42.1952 31.9218 42.1875ZM27.2343 17.1875H22.7968L14.2968 32.8125L18.0781 39.0625H31.9218L35.7031 32.8125L27.2343 17.1875Z" fill="#5C3890"/>
<path id="Vector_5" d="M25 12.5C24.0729 12.5 23.1666 12.2251 22.3958 11.71C21.6249 11.1949 21.0241 10.4629 20.6693 9.60633C20.3145 8.7498 20.2217 7.8073 20.4026 6.89802C20.5834 5.98873 21.0299 5.1535 21.6854 4.49794C22.341 3.84238 23.1762 3.39594 24.0855 3.21507C24.9948 3.0342 25.9373 3.12703 26.7938 3.48182C27.6504 3.8366 28.3824 4.43741 28.8975 5.20827C29.4126 5.97912 29.6875 6.8854 29.6875 7.8125C29.6875 9.0557 29.1936 10.248 28.3146 11.1271C27.4355 12.0061 26.2432 12.5 25 12.5ZM25 6.25C24.691 6.25 24.3889 6.34164 24.1319 6.51333C23.875 6.68502 23.6747 6.92905 23.5564 7.21456C23.4382 7.50007 23.4072 7.81424 23.4675 8.11733C23.5278 8.42043 23.6766 8.69884 23.8951 8.91736C24.1137 9.13588 24.3921 9.28469 24.6952 9.34498C24.9983 9.40527 25.3124 9.37433 25.5979 9.25606C25.8835 9.1378 26.1275 8.93753 26.2992 8.68058C26.4709 8.42363 26.5625 8.12154 26.5625 7.8125C26.5625 7.3981 26.3979 7.00067 26.1049 6.70765C25.8118 6.41462 25.4144 6.25 25 6.25Z" fill="#FF7A2F"/>
<path id="Vector_6" d="M31.25 46.875H18.75C18.3356 46.875 17.9382 46.7104 17.6451 46.4174C17.3521 46.1243 17.1875 45.7269 17.1875 45.3125C17.1875 44.8981 17.3521 44.5007 17.6451 44.2076C17.9382 43.9146 18.3356 43.75 18.75 43.75H31.25C31.6644 43.75 32.0618 43.9146 32.3549 44.2076C32.6479 44.5007 32.8125 44.8981 32.8125 45.3125C32.8125 45.7269 32.6479 46.1243 32.3549 46.4174C32.0618 46.7104 31.6644 46.875 31.25 46.875Z" fill="#5C3890"/>
<path id="Vector_7" d="M9.375 12.5H6.25C5.4212 12.5 4.62634 12.1708 4.04029 11.5847C3.45424 10.9987 3.125 10.2038 3.125 9.375V6.25C3.125 5.4212 3.45424 4.62634 4.04029 4.04029C4.62634 3.45424 5.4212 3.125 6.25 3.125H9.375C10.2038 3.125 10.9987 3.45424 11.5847 4.04029C12.1708 4.62634 12.5 5.4212 12.5 6.25V9.375C12.5 10.2038 12.1708 10.9987 11.5847 11.5847C10.9987 12.1708 10.2038 12.5 9.375 12.5ZM6.25 6.25V9.375H9.375V6.25H6.25Z" fill="#FF7A2F"/>
<path id="Vector_8" d="M43.75 12.5H40.625C39.7962 12.5 39.0013 12.1708 38.4153 11.5847C37.8292 10.9987 37.5 10.2038 37.5 9.375V6.25C37.5 5.4212 37.8292 4.62634 38.4153 4.04029C39.0013 3.45424 39.7962 3.125 40.625 3.125H43.75C44.5788 3.125 45.3737 3.45424 45.9597 4.04029C46.5458 4.62634 46.875 5.4212 46.875 6.25V9.375C46.875 10.2038 46.5458 10.9987 45.9597 11.5847C45.3737 12.1708 44.5788 12.5 43.75 12.5ZM40.625 6.25V9.375H43.75V6.25H40.625Z" fill="#FF7A2F"/>
</g>
</g>
</svg>
