<svg width="50" height="50" viewBox="0 0 50 50" fill="none" xmlns="http://www.w3.org/2000/svg">
<g id="UX Research">
<g id="6">
<path id="Vector" d="M34.375 46.875C34.17 46.8803 33.9667 46.8375 33.7813 46.75C33.4959 46.6328 33.2516 46.4337 33.0793 46.1779C32.9069 45.9221 32.814 45.621 32.8125 45.3125V37.5C32.8125 37.0856 32.9771 36.6882 33.2701 36.3951C33.5632 36.1021 33.9606 35.9375 34.375 35.9375H42.1875C42.496 35.939 42.7971 36.0319 43.0529 36.2043C43.3087 36.3766 43.5078 36.6209 43.625 36.9063C43.7447 37.1908 43.7773 37.5044 43.7189 37.8075C43.6606 38.1106 43.5137 38.3896 43.2969 38.6094L35.4844 46.4219C35.3384 46.5667 35.1652 46.6813 34.9749 46.759C34.7845 46.8368 34.5806 46.8762 34.375 46.875ZM35.9375 39.0625V41.5469L38.4219 39.0625H35.9375Z" fill="#FF7A2F"/>
<path id="Vector_2" d="M40.625 3.125H9.375C8.5462 3.125 7.75134 3.45424 7.16529 4.04029C6.57924 4.62634 6.25 5.4212 6.25 6.25V43.75C6.25 44.5788 6.57924 45.3737 7.16529 45.9597C7.75134 46.5458 8.5462 46.875 9.375 46.875H33.7344C34.5618 46.8715 35.3541 46.54 35.9375 45.9531L42.8281 39.0625C43.415 38.4791 43.7465 37.6868 43.75 36.8594V6.25C43.75 5.4212 43.4208 4.62634 42.8347 4.04029C42.2487 3.45424 41.4538 3.125 40.625 3.125ZM40.625 6.25V28.125H9.375V6.25H40.625ZM33.7344 43.75H9.375V31.25H40.625V36.8594L33.7344 43.75Z" fill="#5C3890"/>
<path id="Vector_3" d="M38.8594 24.2344L31.0469 10.1719C30.9106 9.9314 30.713 9.73139 30.4742 9.59223C30.2354 9.45308 29.9639 9.37976 29.6875 9.37976C29.4111 9.37976 29.1397 9.45308 28.9009 9.59223C28.6621 9.73139 28.4644 9.9314 28.3281 10.1719L23.1719 19.4375L20.0469 14.75C19.904 14.5373 19.7109 14.363 19.4848 14.2425C19.2586 14.122 19.0063 14.059 18.75 14.059C18.4938 14.059 18.2414 14.122 18.0153 14.2425C17.7891 14.363 17.5961 14.5373 17.4531 14.75L11.2031 24.125C11.0668 24.2943 10.9672 24.4902 10.9109 24.7002C10.8545 24.9102 10.8426 25.1296 10.8759 25.3444C10.9092 25.5593 10.987 25.7648 11.1042 25.9479C11.2215 26.131 11.3757 26.2876 11.5569 26.4076C11.7381 26.5277 11.9424 26.6087 12.1567 26.6453C12.371 26.6819 12.5906 26.6735 12.8014 26.6204C13.0123 26.5673 13.2097 26.4708 13.3811 26.3371C13.5525 26.2034 13.6941 26.0353 13.7969 25.8437L18.75 18.4375L23.7031 25.8594C23.8447 26.0743 24.0371 26.251 24.2634 26.3736C24.4896 26.4963 24.7427 26.5612 25 26.5625C25.3072 26.566 25.6078 26.4731 25.8594 26.2969C26.2019 26.0678 26.4401 25.7126 26.522 25.3088C26.6039 24.905 26.523 24.4851 26.2969 24.1406L25.125 22.375L29.6875 14.1562L36.1406 25.7656C36.2763 26.007 36.4737 26.2079 36.7125 26.348C36.9514 26.488 37.2232 26.562 37.5 26.5625C37.7684 26.5617 38.0321 26.4917 38.2656 26.3594C38.6257 26.1559 38.8904 25.8179 39.0017 25.4196C39.113 25.0212 39.0618 24.595 38.8594 24.2344Z" fill="#FF7A2F"/>
<path id="Vector_4" d="M21.875 12.5C21.4606 12.5 21.0632 12.3354 20.7702 12.0424C20.4771 11.7493 20.3125 11.3519 20.3125 10.9375C20.3113 10.7319 20.3508 10.528 20.4285 10.3377C20.5063 10.1473 20.6208 9.97414 20.7657 9.82814C20.9476 9.648 21.1709 9.51531 21.4161 9.44175C21.6613 9.36819 21.9209 9.356 22.1719 9.40627C22.2754 9.42075 22.3757 9.45244 22.4688 9.50002L22.75 9.64064L22.9844 9.82814C23.2699 10.1276 23.4318 10.5238 23.4375 10.9375C23.4375 11.3519 23.2729 11.7493 22.9799 12.0424C22.6869 12.3354 22.2894 12.5 21.875 12.5Z" fill="#5C3890"/>
</g>
</g>
</svg>
