<svg width="50" height="50" viewBox="0 0 50 50" fill="none" xmlns="http://www.w3.org/2000/svg">
<g id="Web design">
<g id="6">
<path id="Vector" d="M29.6875 46.875H20.3125C20.0782 46.8797 19.8458 46.8317 19.6325 46.7344C19.4192 46.6371 19.2306 46.4931 19.0805 46.3131C18.9305 46.133 18.8229 45.9215 18.7656 45.6942C18.7084 45.4669 18.7031 45.2296 18.75 45L20.3125 37.1875C20.3856 36.8292 20.5819 36.5079 20.8674 36.2795C21.1529 36.0511 21.5095 35.9301 21.875 35.9375H28.125C28.4906 35.9301 28.8471 36.0511 29.1326 36.2795C29.4181 36.5079 29.6145 36.8292 29.6875 37.1875L31.25 45C31.2947 45.2269 31.2885 45.461 31.2318 45.6853C31.175 45.9096 31.0692 46.1184 30.9219 46.2968C30.7732 46.4802 30.5849 46.6275 30.3711 46.7276C30.1573 46.8277 29.9236 46.8781 29.6875 46.875ZM22.2188 43.75H27.7813L26.8438 39.0625H23.1563L22.2188 43.75Z" fill="#FF7A2F"/>
<path id="Vector_2" d="M4.68869 31.2028L4.68488 34.3278L45.3098 34.3774L45.3137 31.2524L4.68869 31.2028Z" fill="#FF7A2F"/>
<path id="Vector_3" d="M26.5625 17.7969V10.9375C26.5625 10.5231 26.3979 10.1257 26.1049 9.83265C25.8119 9.53962 25.4144 9.375 25 9.375C24.5856 9.375 24.1882 9.53962 23.8952 9.83265C23.6021 10.1257 23.4375 10.5231 23.4375 10.9375V17.8125C23.0231 17.8519 22.6413 18.0542 22.3761 18.3751C22.111 18.696 21.9841 19.109 22.0235 19.5234C22.0628 19.9378 22.2652 20.3196 22.5861 20.5848C22.9069 20.85 23.32 20.9769 23.7344 20.9375H26.2656C26.68 20.9769 27.0931 20.85 27.414 20.5848C27.7348 20.3196 27.9372 19.9378 27.9766 19.5234C28.016 19.109 27.8891 18.696 27.6239 18.3751C27.3587 18.0542 26.9769 17.8519 26.5625 17.8125V17.7969Z" fill="#FF7A2F"/>
<path id="Vector_4" d="M45.3125 39.0625H4.6875C3.8587 39.0625 3.06384 38.7333 2.47779 38.1472C1.89174 37.5612 1.5625 36.7663 1.5625 35.9375V6.25C1.5625 5.4212 1.89174 4.62634 2.47779 4.04029C3.06384 3.45424 3.8587 3.125 4.6875 3.125H45.3125C46.1413 3.125 46.9362 3.45424 47.5222 4.04029C48.1083 4.62634 48.4375 5.4212 48.4375 6.25V35.9375C48.4375 36.7663 48.1083 37.5612 47.5222 38.1472C46.9362 38.7333 46.1413 39.0625 45.3125 39.0625ZM4.6875 6.25V35.9375H45.3125V6.25H4.6875Z" fill="#5C3890"/>
<path id="Vector_5" d="M32.8125 46.875H17.1875C16.7731 46.875 16.3757 46.7104 16.0826 46.4174C15.7896 46.1243 15.625 45.7269 15.625 45.3125C15.625 44.8981 15.7896 44.5007 16.0826 44.2076C16.3757 43.9146 16.7731 43.75 17.1875 43.75H32.8125C33.2269 43.75 33.6243 43.9146 33.9174 44.2076C34.2104 44.5007 34.375 44.8981 34.375 45.3125C34.375 45.7269 34.2104 46.1243 33.9174 46.4174C33.6243 46.7104 33.2269 46.875 32.8125 46.875Z" fill="#5C3890"/>
<path id="Vector_6" d="M32.3594 19.1875L28 10.4688C27.769 9.99901 27.4107 9.60351 26.966 9.32728C26.5212 9.05105 26.0079 8.90519 25.4844 8.90629H24.5156C23.9917 8.90335 23.4776 9.04846 23.0326 9.32489C22.5875 9.60133 22.2296 9.99785 22 10.4688L17.6406 19.1875C17.4329 19.605 17.3247 20.065 17.3247 20.5313C17.3247 20.9976 17.4329 21.4576 17.6406 21.875L19.2031 25.3282C19.486 25.9256 19.951 26.4179 20.5313 26.7344C20.2789 26.8652 20.0669 27.0623 19.9182 27.3046C19.7695 27.5469 19.6898 27.8252 19.6875 28.1094C19.6875 28.5238 19.8521 28.9212 20.1452 29.2143C20.4382 29.5073 20.8356 29.6719 21.25 29.6719H28.8125C29.2269 29.6719 29.6243 29.5073 29.9174 29.2143C30.2104 28.9212 30.375 28.5238 30.375 28.1094C30.3728 27.8252 30.293 27.5469 30.1443 27.3046C29.9956 27.0623 29.7837 26.8652 29.5313 26.7344C30.1116 26.4179 30.5765 25.9256 30.8594 25.3282L32.4219 21.875C32.6121 21.4507 32.7052 20.9892 32.6944 20.5242C32.6836 20.0593 32.5691 19.6026 32.3594 19.1875ZM27.9844 24.0469H22.0156L20.4531 20.5938L24.7188 12.0469H25.3125L29.5781 20.5938L27.9844 24.0469Z" fill="#5C3890"/>
</g>
</g>
</svg>
